<svg xmlns="http://www.w3.org/2000/svg" width="30" height="30" viewBox="0 0 30 30">
    <g fill="none" fill-rule="evenodd" transform="rotate(180 15 15)">
        <circle cx="15" cy="15" r="14.583" fill="#FFF" stroke="#5F004B" stroke-width=".833" opacity=".2"/>
        <g>
            <path d="M0 0H20V20H0z" transform="translate(5 5)"/>
            <path fill="#5F004B" d="M7.5 7.465v5.176c0 .46.373.833.833.833.176 0 .347-.055.489-.158l3.578-2.588c.373-.27.456-.79.187-1.164-.052-.071-.115-.134-.187-.186L8.822 6.789c-.373-.27-.894-.186-1.164.187-.103.142-.158.313-.158.489z" transform="translate(5 5)"/>
        </g>
    </g>
</svg>
