<svg xmlns="http://www.w3.org/2000/svg" width="32" height="21" viewBox="0 0 32 21">
    <g fill="none" fill-rule="evenodd">
        <g fill-rule="nonzero">
            <g>
                <g>
                    <g>
                        <g>
                            <path fill="#FFD300" d="M25.924 17.17H5.296c-.315 0-.61-.152-.787-.408C1.787 12.844 1.579 5.308 1.562 4.19l-.001-.132c0-.516.425-.934.95-.935h.003c.524 0 .95.416.952.931 0 .007 0 .062.003.16.084 2.66 2.315 4.8 5.046 4.8 2.783 0 5.048-2.224 5.048-4.956 0-.516.427-.935.953-.935h2.188c.526 0 .953.419.953.935 0 2.732 2.264 4.955 5.048 4.955 2.733 0 4.966-2.142 5.046-4.806l.002-.152c.002-.516.428-.932.953-.932h.002c.525 0 .95.42.95.935v.133c-.017 1.118-.226 8.655-2.947 12.573-.177.255-.472.408-.787.408z" transform="translate(-232 -223) translate(208 140) translate(0 62) translate(24 20) translate(0 1)"/>
                            <path fill="#FFC02E" d="M15.622 0C13.901 0 12.5 1.4 12.5 3.122s1.4 3.122 3.122 3.122c1.721 0 3.122-1.4 3.122-3.122 0-1.721-1.4-3.122-3.122-3.122zM3.122 2.341C1.401 2.341 0 3.742 0 5.463c0 1.722 1.4 3.122 3.122 3.122s3.122-1.4 3.122-3.122c0-1.721-1.4-3.122-3.122-3.122zM28.878 2.341c-1.722 0-3.122 1.401-3.122 3.123 0 1.72 1.4 3.121 3.122 3.121 1.721 0 3.122-1.4 3.122-3.121 0-1.722-1.4-3.123-3.122-3.123zM26.36 20.293H5.64c-.529 0-.957-.439-.957-.98V16.39h22.634v2.923c0 .541-.428.98-.957.98z" transform="translate(-232 -223) translate(208 140) translate(0 62) translate(24 20) translate(0 1)"/>
                        </g>
                    </g>
                </g>
            </g>
        </g>
    </g>
</svg>
