<svg xmlns="http://www.w3.org/2000/svg" width="24" height="24" viewBox="0 0 24 24">
    <defs>
        <path id="4yjwjee81a" d="M2.486 15.07l4.082-5.316L11 15.56H2.486v-.49zm10.52-.851l1.749-2.137 2.784 3.477h-3.51l-1.022-1.34zM17.595 2.44v9.333l-1.903-2.379c-.226-.281-.564-.446-.92-.448h-.006c-.354 0-.69.16-.918.437l-2.344 2.867-3.99-5.225c-.226-.297-.573-.47-.94-.471H6.57c-.368 0-.714.173-.941.467l-3.144 4.094V2.44h15.108zm2.502 12.458l-.111-.14V1.22c0-.674-.535-1.22-1.196-1.22H1.291C.631 0 .096.546.096 1.22v15.56c0 .674.535 1.22 1.195 1.22H18.79c.66 0 1.196-.546 1.196-1.22v-1.79l.111-.092z"/>
    </defs>
    <g fill="none" fill-rule="evenodd">
        <g>
            <g>
                <g>
                    <g>
                        <path fill="#FF8E75" fill-rule="nonzero" d="M14.39 8.842l-2.15-4.585c-.16-.343-.72-.343-.88 0L9.21 8.842l-4.796.734c-.394.06-.55.54-.275.823l3.484 3.577-.823 5.056c-.066.402.362.703.717.506l4.283-2.37 4.284 2.37c.35.196.783-.1.717-.505l-.824-5.057 3.484-3.576c.276-.284.118-.764-.275-.824l-4.796-.734z" transform="translate(-228 -366) translate(208 140) translate(0 158) translate(20 68) matrix(-1 0 0 1 23.6 0)"/>
                    </g>
                </g>
            </g>
        </g>
    </g>
</svg>
