<svg xmlns="http://www.w3.org/2000/svg" width="154" height="154" viewBox="0 0 154 154">
    <g fill="none" fill-rule="evenodd">
        <g fill-rule="nonzero">
            <g transform="translate(-1111 -81) translate(1111 81)">
                <path fill="#EB993F" d="M98.663 111.154c-.688.657-1.568 1.078-2.511 1.203-7.1 1.177-22.872-8.381-38.049-23.545-14.542-14.543-23.862-29.56-23.638-37.017-.034-1.296.44-2.553 1.322-3.504 5.024-5.023 23.189 4.985 40.547 22.356 17.359 17.372 27.42 35.483 22.33 40.507z"/>
                <path fill="#FFC600" d="M8.21 139.644c3.424 3.424 6.861 6.703 10.272 9.85l-7.271 3.45c-2.838 1.346-6.208.843-8.529-1.275-2.32-2.117-3.13-5.427-2.047-8.376l3.014-8.25c1.516 1.534 3.036 3.067 4.56 4.601zM24.431 123.383c5.54 5.54 11.132 10.669 16.618 15.296l-11.898 5.685c-4.407-3.905-8.814-8.065-13.22-12.48-2.794-2.794-5.483-5.588-8.065-8.382l4.667-12.758c3.741 4.178 7.72 8.422 11.898 12.639zM42.239 104.227c7.884 7.985 16.492 15.221 25.714 21.615l-14.715 7.033c-7.374-5.78-14.386-12.01-20.994-18.654-5.473-5.473-10.483-10.986-14.952-16.393l5.777-15.864c5.806 7.905 12.215 15.348 19.17 22.263zM96.152 112.357l-2.208 1.058-6.24 2.988-5.95 2.842-1.467.7c-8.831-4.706-19.645-12.968-30.222-23.545-8.5-8.307-15.941-17.632-22.157-27.762l.9-2.446 2.445-6.69 2.432-6.61 1.032-2.803.198-.528c0 1.505.204 3.004.608 4.455 1.322 4.512 3.21 8.839 5.619 12.876 4.359 7.483 9.606 14.412 15.626 20.637l.08.08.581.595.661.674c.661.674 1.322 1.322 2.01 1.983l.66.621c.701.675 1.323 1.322 2.09 1.957l.33.317.29.251 1.323 1.203 2.01 1.746.674.555c.436.383.885.753 1.322 1.11l.595.476c.899.727 1.798 1.428 2.644 2.115l.634.49 1.996 1.375c.199.145.397.29.609.423 1.322.899 2.498 1.731 3.715 2.511l.224.133.33.211c1.415.886 2.79 1.692 4.112 2.393l.133.08.846.436.132.066.476.238h.066l.542.264.489.238 1.07.463.992.41c.503.185.979.37 1.455.515l.462.159.463.132.41.12.436.105.37.092h.066l.82.159h.74c.831.166 1.682.21 2.526.132z"/>
                <path fill="#2E3040" d="M98.663 111.154c-.688.657-1.568 1.078-2.511 1.203-7.1 1.177-22.872-8.381-38.049-23.545-14.542-14.543-23.862-29.56-23.638-37.017-.034-1.296.44-2.553 1.322-3.504 5.024-5.023 23.189 4.985 40.547 22.356 17.359 17.372 27.42 35.483 22.33 40.507z"/>
                <path fill="#FFF" d="M80.287 119.999l-4.442 2.128-5.54 2.644-2.34 1.124c-9.221-6.394-17.83-13.63-25.713-21.615-6.947-6.925-13.347-14.377-19.143-22.29l1.322-3.464L26.6 72.59l1.415-3.9C34.229 78.821 41.67 88.146 50.17 96.453 60.641 106.977 71.456 115.24 80.287 120zM29.217 144.364l-10.735 5.13c-3.41-3.147-6.848-6.426-10.272-9.85-1.534-1.534-3.04-3.067-4.522-4.6l4.218-11.542c2.59 2.803 5.28 5.597 8.064 8.382 4.416 4.415 8.831 8.575 13.247 12.48zM53.225 132.875l-12.123 5.804c-5.486-4.627-11.079-9.757-16.618-15.296-4.23-4.217-8.21-8.461-11.898-12.678l4.706-12.877c4.469 5.407 9.48 10.92 14.952 16.393 6.607 6.64 13.614 12.87 20.981 18.654z"/>
                <path fill="#EE2737" d="M78.833 84.621c-3.067 0-6.994-1.838-11.052-3.755l-2.843-1.322c-.831-.373-1.204-1.349-.833-2.181.379-.833 1.359-1.205 2.195-.833l2.882 1.322c4.31 2.023 9.677 4.548 11.079 2.895 1.004-1.163-.133-4.534-1.124-7.509-1.52-4.521-3.239-9.664 0-12.784 2.499-2.38 6.875-.608 11.105 1.097 2.882 1.177 6.835 2.777 7.866 1.759 1.031-1.018-.198-4.879-1.07-7.734-1.415-4.64-2.883-9.426-.133-12.19 1.877-1.89 5.143-2.022 9.995-.396.58.17 1.023.643 1.152 1.235.128.591-.076 1.206-.534 1.602-.458.396-1.096.51-1.663.296-4.746-1.586-6.2-.806-6.61-.396-1.322 1.322 0 5.526.952 8.884 1.322 4.468 2.644 8.686.225 11.065-2.42 2.38-7.073.7-11.423-1.057-2.644-1.071-6.61-2.644-7.588-1.772-1.772 1.679-.463 5.579.793 9.347 1.322 3.966 2.644 8.117.516 10.708-.969 1.132-2.398 1.764-3.887 1.719z"/>
                <circle cx="114.501" cy="46.956" r="2.922" fill="#EE2737"/>
                <circle cx="132.56" cy="119.972" r="2.922" fill="#FFC600"/>
                <circle cx="73.994" cy="41.02" r="3.794" fill="#FFC600"/>
                <rect width="7.932" height="7.932" x="86.582" y="1.644" fill="#EE2737" rx="1.586" transform="rotate(45 90.548 5.61)"/>
                <rect width="7.932" height="7.932" x="146.005" y="42.223" fill="#FFC600" rx="1.586"/>
                <path fill="#FFC600" d="M127.933 114.592c-.396.002-.778-.144-1.07-.41-9.004-7.734-18.51-12.07-28.371-12.864-8.096-.508-16.19 1-23.56 4.39-.4.177-.856.188-1.265.029-.41-.159-.739-.474-.915-.876-.36-.84.023-1.813.859-2.181 19.83-8.633 38.445-5.605 55.406 9.003.528.45.717 1.183.475 1.833-.243.65-.865 1.08-1.559 1.076zM18.561 42.527c-5.003.13-8.976 4.25-8.923 9.255.001-2.528-1.024-4.948-2.841-6.706-1.818-1.757-4.27-2.7-6.797-2.615 5.078-.104 9.18-4.177 9.32-9.254-.02 2.468.945 4.842 2.683 6.595 1.737 1.753 4.103 2.739 6.572 2.739l-.014-.014z"/>
                <circle cx="51.216" cy="24.059" r="2.922" fill="#98C4E2"/>
                <rect width="7.932" height="7.932" x="97.545" y="126.048" fill="#98C4E2" rx="1.586" transform="rotate(45 101.512 130.014)"/>
                <path fill="#98C4E2" d="M49.669 65.914c-.358.004-.708-.112-.992-.33-.353-.261-.587-.653-.65-1.088-.062-.435.053-.877.32-1.226 4.72-6.306 8.077-18.31 4.891-30.883-.163-.86.371-1.697 1.22-1.911.848-.214 1.716.27 1.98 1.105 3.04 11.99.899 25.198-5.447 33.672-.312.416-.802.661-1.322.661zM127.378 75.525c-4.239 2.638-5.575 8.19-3.001 12.467-1.285-2.179-3.4-3.743-5.86-4.333-2.46-.59-5.054-.158-7.189 1.2 4.325-2.658 5.802-8.242 3.358-12.692 1.233 2.135 3.265 3.69 5.648 4.32 2.382.63 4.918.284 7.044-.962z"/>
            </g>
        </g>
    </g>
</svg>
