<svg xmlns="http://www.w3.org/2000/svg" width="100" height="100" fill="none" viewBox="0 0 100 100">
    <path fill="#FFC600" fill-rule="evenodd" d="M100 50c0 27.51-22.336 49.902-49.823 50H50C22.433 100 0 77.569 0 50S22.433 0 50 0h.177C77.664.098 100 22.49 100 50z" clip-rule="evenodd"/>
    <path fill="#2F3043" fill-rule="evenodd" d="M73.263 41.194l-22.69 22.285-4.903 4.816C44.512 69.431 42.993 70 41.475 70c-1.519 0-3.037-.568-4.196-1.706L26.737 57.938c-2.316-2.275-2.316-5.96 0-8.237 2.314-2.275 6.07-2.275 8.387 0l6.351 6.237 23.4-22.98c2.317-2.277 6.074-2.277 8.388 0 2.316 2.274 2.316 5.964 0 8.236z" clip-rule="evenodd"/>
</svg>
