<svg xmlns="http://www.w3.org/2000/svg" width="424" height="172" viewBox="0 0 424 172">
    <defs>
        <radialGradient id="uuiyms2rza" cx="98.332%" cy="99.794%" r="263.75%" fx="98.332%" fy="99.794%" gradientTransform="matrix(.36096 0 0 1 .628 0)">
            <stop offset="1%" stop-color="#FFF"/>
            <stop offset="4%" stop-color="#C6FFFF"/>
            <stop offset="9%" stop-color="#80FFFF"/>
            <stop offset="13%" stop-color="#49FFFF"/>
            <stop offset="17%" stop-color="#21FFFF"/>
            <stop offset="20%" stop-color="#09FFFF"/>
            <stop offset="22%" stop-color="#0FF"/>
            <stop offset="28%" stop-color="#01F6FF" stop-opacity=".96"/>
            <stop offset="39%" stop-color="#04DEFF" stop-opacity=".87"/>
            <stop offset="53%" stop-color="#08B6FF" stop-opacity=".71"/>
            <stop offset="69%" stop-color="#0E7FFF" stop-opacity=".5"/>
            <stop offset="87%" stop-color="#1639FF" stop-opacity=".22"/>
            <stop offset="100%" stop-color="#1C00FF" stop-opacity="0"/>
        </radialGradient>
    </defs>
    <g fill="none" fill-rule="evenodd">
        <g>
            <g transform="translate(-976 -382) translate(976 382)">
                <rect width="424" height="172" fill="#2F3043" rx="8.413"/>
                <g>
                    <g transform="translate(16 16) translate(235 6)">
                        <circle cx="73.748" cy="63.167" r="63.023" fill="#FFC600" fill-rule="nonzero" opacity=".5"/>
                        <circle cx="73.748" cy="63.167" r="42.828" fill="#FFC600" fill-rule="nonzero" opacity=".5"/>
                        <circle cx="73.748" cy="63.167" r="23.048" fill="#FFC600" fill-rule="nonzero"/>
                        <path fill="#FAFBFB" fill-rule="nonzero" d="M83.597 62.066L68.078 53.11c-.275-.178-.611-.238-.932-.167-.32.072-.6.268-.774.547-.136.212-.205.46-.198.713v17.92c-.026.685.507 1.262 1.191 1.29.252.017.503-.05.713-.189l15.52-8.955c.602-.324.835-1.07.523-1.68-.116-.224-.3-.407-.524-.523z"/>
                        <path fill="#F0E3CD" fill-rule="nonzero" d="M148.245 87.912c.036-1.563-1.199-2.862-2.762-2.906-.365-.01-.729.046-1.075.162-.09-1.449-1.258-2.597-2.708-2.663-.282-.001-.564.029-.84.09-.574-1.455-2.216-2.173-3.674-1.607l-.262.136c-.327-.65-.902-1.14-1.595-1.36-.693-.22-1.445-.154-2.088.186-.434.22-.8.553-1.056.966-1.39-.71-3.093-.177-3.828 1.2v.145c-1.495-.46-3.082.37-3.557 1.86-.053.15-.074.31-.063.47-.706-.274-1.493-.256-2.185.05-.693.307-1.235.877-1.508 1.583-.081.31-.127.628-.135.948l-.506 6.058 27.752.731.208-6.076-.118.027z"/>
                        <path fill="#EE2737" fill-rule="nonzero" d="M119.88 92.156c.014-.754.328-1.47.871-1.992.544-.522 1.273-.806 2.027-.789 1.56.11 2.756 1.433 2.708 2.997l-.686 35.082-2.925-.072c-.499 0-.903-.404-.903-.903l-.903-34.044c-.086-.075-.151-.171-.19-.28z"/>
                        <path fill="#FFF" fill-rule="nonzero" d="M128.51 89.528c.761 0 1.49.303 2.027.842.537.539.838 1.269.835 2.03v.053l-1.002 35.164-5.588-.163.83-35.136c.008-.75.314-1.465.852-1.987.537-.522 1.261-.808 2.01-.794l.036-.009z"/>
                        <path fill="#EE2737" fill-rule="nonzero" d="M134.17 89.655c1.558.025 2.801 1.305 2.781 2.862l-.902 35.136-5.688-.081 1.03-35.137c.019-1.527 1.252-2.76 2.78-2.78z"/>
                        <path fill="#FFF" fill-rule="nonzero" d="M139.93 89.8c1.558.024 2.801 1.304 2.781 2.861l-.903 35.154-5.696-.162.903-35.136c.034-1.553 1.308-2.791 2.861-2.781l.055.063z"/>
                        <path fill="#EE2737" fill-rule="nonzero" d="M142.639 92.815l-.903 35.073 2.916.09c.487-.027.876-.416.903-.903l.695-9.93 1.941-23.987c.197-1.568-.915-3-2.483-3.196l-.388-.054c-1.52.11-2.695 1.382-2.681 2.907z"/>
                        <path fill="#EFEFEF" fill-rule="nonzero" d="M39.767 94.34c-.487 5.354-7.917 10.445-12.503 9.425.223 4.473-.178 8.954-1.192 13.316-.153.822-.081 8.26-.207 10.175.902.442 1.462 1.968.09 1.931-1.372-.036-16.584-.306-17.956-.487-.729-.417-1.328-1.026-1.734-1.76 0 0-2.636.677-3.557-.795l-.261-.433c.142-1.11.481-2.187 1.002-3.178.597.342 1.321.38 1.95.1-.325-3.25 5.868-10.644 8.576-14.274 2.708-3.629.966-15.374.966-15.374l8.324-10.445c4.721 1.724 11.88-1.453 15.618 0 2.085.822 1.354 6.473.884 11.8z"/>
                        <path fill="#292B39" fill-rule="nonzero" d="M17.424 94.792c1.652.117 7.601.207 7.998-3.106.397-3.313 1.508-8.685-2.889-9.308-4.396-.622-7.096 2.826-7.935 5.652-1.39-.66-5.254 1.607-4.216 4.514 1.038 2.907 2.753 6.382 2.961 6.996.208.614 1.101 2.618 4.08-4.748z"/>
                        <path fill="#2F3042" fill-rule="nonzero" d="M3.449 122.552c-.524.991-.87 2.067-1.02 3.178-3.612-6.076-.515-8.586-.488-7.511.072 2.681.767 3.855 1.508 4.333z"/>
                        <ellipse cx="13.466" cy="113.552" fill="#292B39" fill-rule="nonzero" rx="2.456" ry="1.625" transform="rotate(-64.57 13.466 113.552)"/>
                        <path fill="#2F3042" fill-rule="nonzero" d="M17.992 129.097l.28-9.93c-.496.352-1.869 1.39-2.645 1.372.872.694 1.337 1.78 1.237 2.889-.177.942-.706 1.782-1.48 2.347 1.054.28 1.779 1.247 1.75 2.338v.903l.858.081zM23.824 129.341l.334-10.382c.686-.244 1.002-1.372 1.002-1.453-.902.505-2.96-.57-3.177-1.237.179 2.18.227 4.368.144 6.554l-.108 3.358c.526.56.82 1.3.821 2.068 0 .302-.027.605-.081.902l1.065.19z" opacity=".1"/>
                        <path fill="#EE2737" fill-rule="nonzero" d="M15.013 104.153s6.563 4.307 12.64 3.955c.163 1.354.05 2.727-.335 4.035-1.155.081-8.73-.162-12.765-5.84.053-.735.208-1.458.46-2.15z"/>
                        <path fill="#292B39" fill-rule="nonzero" d="M33.484 83.128c.19 1.462 3.394 3.972 6.202 2.627 1.011-.497.966-4.514-.162-5.588-1.129-1.075-5.417 1.218-6.04 2.96z"/>
                        <path stroke="#2F3042" stroke-width=".587" d="M37.014 92.986c-1.03 1.03-4.189 2.997-6.78.623"/>
                        <path fill="#FFF" fill-rule="nonzero" d="M21.459 88.761c-.09-.004-.163-.073-.171-.162-.155-.635.003-1.306.424-1.806.469-.28 1.045-.315 1.544-.09.042.012.077.041.098.08.02.04.024.086.01.127-.03.086-.12.133-.208.109-.391-.198-.854-.198-1.246 0-.334.27-.334.903-.28 1.48.006.097-.066.18-.162.19l-.009.072z"/>
                    </g>
                    <text fill="#FFF" font-family="Vi-Heavy, Vi" font-size="20" font-weight="800" transform="translate(16 16)">
                        <tspan x="0" y="61">Disney+ Hotstar VIP </tspan> <tspan x="0" y="85">1 yr subscription</tspan>
                    </text>
                    <text fill="#FFF" font-family="Vi-Regular, Vi" font-size="14" transform="translate(16 16)">
                        <tspan x="0" y="111">Upgrade to postpaid plans </tspan> <tspan x="0" y="129">starting from ₹499</tspan>
                    </text>
                    <g fill-rule="nonzero">
                        <g>
                            <path fill="#FFF" d="M19.382 15.67l.05.008c.385.05.763.12 1.052.251.269.118.425.268.569.533.218.402.232.969.035 1.396-.147.319-.47.586-.766.727-.3.14-.623.228-.954.258-.62.06-1.244-.051-1.805-.322-.322-.156-.717-.427-.914-.774-.15-.26-.137-.584.035-.83.284-.386.89-.47 1.348-.455.348.014.975.122 1.306.239.091.033.43.163.489.224.045.04.064.1.05.159-.076.23-.637.351-.8.376-.434.066-.659-.097-1.153-.292-.132-.054-.27-.092-.41-.112-.224-.022-.495.04-.538.285-.021.126.127.243.24.292.232.104.485.158.74.158.77.013 1.635-.114 2.265-.558.086-.061.171-.15.172-.265.002-.228-.4-.367-.4-.367-.424-.177-1.21-.262-1.613-.295-.423-.037-1.09-.092-1.25-.115-.167-.019-.33-.059-.487-.12-.156-.072-.275-.206-.326-.369-.073-.288.022-.642.182-.872.42-.602 1.406-.831 2.142-.922.713-.088 1.866-.088 2.565.283.108.057.164.112.14.226-.045.217-.208.356-.406.417-.208.066-.635.092-.824.103-.844.047-1.866.022-2.668.241-.063.018-.172.047-.207.086-.125.136.234.175.31.191.018.005.034.007.05.009l1.778.208.003-.001zm-5.02-3.747s.137-.206.252-.36c.26-.335.553-.643.874-.92.087-.075.19-.158.19-.158s-.161.015-.252.034c-.216.042-.534.25-.692.388-.262.223-.55.587-.42.91.019.045.048.106.048.106zm1.454.388c.409-.029.805-.147 1.16-.347.353-.197.875-.581.82-1.033-.015-.138-.105-.256-.234-.308-.157-.069-.239-.057-.44 0-.124.032-.242.081-.352.147-.405.235-.98.738-1.293 1.138-.071.096-.144.202-.2.274-.037.044-.065.086-.062.097.012.045.439.04.6.03l.002.002zm-1.052.77c-.043.045-.088.154-.134.232-.027.045-.061.084-.1.118-.109.079-.2.082-.304-.009-.145-.134-.23-.322-.236-.52-.003-.084.012-.177-.004-.25-.027-.12-.148-.244-.212-.36-.083-.162-.133-.338-.147-.52-.027-.474.224-.911.55-1.256.347-.36.764-.644 1.226-.835.441-.186 1.089-.311 1.573-.145.188.068.356.18.489.329.018.028.04.054.067.075.039.014.08.024.122.029.17.038.33.114.469.22.182.157.282.307.328.525.093.439-.16.92-.449 1.212-.494.503-.981.86-1.612 1.106-.278.107-.711.209-1.026.18-.098-.009-.198-.034-.294-.04-.083-.014-.167-.035-.246-.064-.024-.018-.054-.034-.06-.028v.002zm.564.971c.025.006.05.013.074.022.222.084.313.288.368.513.127.521.18 1.675.202 2.126.015.338.024.673.038 1.007.011.283.035.66-.024.926-.024.108-.088.202-.178.264-.105.067-.345.073-.477.046-.324-.068-.43-.275-.476-.595-.11-.763-.058-2.26.008-2.893.022-.208.1-.877.21-1.155.037-.095.117-.286.255-.258v-.003zm-9.872 1.27s-.483.034-.816.071c-.423.046-1.218.182-1.676.346-.138.05-.418.164-.442.306-.025.141.065.26.167.379.058.068.39.386.483.463.39.324 1.178.823 1.76 1.066.202.082.53.2.53.2s-.024-.937-.02-1.858c0-.487.014-.97.014-.97v-.003zm8.856.373c.027.251-.037.729-.05.791-.035.177-.083.35-.144.52-.08.183-.17.361-.268.535-.21.342-.465.654-.758.927-.832.716-2.118 1.124-3.224 1.256-.8.095-1.611.074-2.406-.065-.273-.05-.68-.143-.68-.143s0 .162-.011.276c-.015.08-.037.158-.068.233-.055.114-.164.192-.29.207-.166.03-.343.04-.497-.025-.252-.105-.343-.341-.387-.612-.035-.217-.073-.594-.073-.594l-.345-.167c-.472-.234-.922-.508-1.345-.821-.11-.083-.59-.482-.695-.58-.298-.283-.562-.562-.765-.92-.158-.278-.202-.527-.083-.822.164-.412.759-.723 1.164-.9.298-.131 1.225-.432 1.61-.488.182-.027.464-.077.48-.088.008-.005.013-.01.018-.016.01-.012.024-.42.022-.57-.004-.149.109-1.11.145-1.315.019-.11.1-.534.188-.645.056-.076.155-.07.236-.02.441.273.575 1.222.608 1.705.02.295.03.737.03.737s.504-.016.817-.007c.32.014.637.05.951.105.404.064 1.187.234 1.637.462.37.186.716.501.829.835.105.306.089.518-.07.795-.179.31-.516.542-.86.561-.1.006-.486-.045-.605-.136-.043-.037-.048-.102-.01-.146.096-.06.195-.116.298-.166.05-.027.096-.06.138-.098.088-.077.168-.161.159-.262-.013-.129-.152-.209-.28-.26-.615-.243-1.841-.445-2.434-.48-.231-.013-.562-.025-.562-.025l.07 3.26s.273.05.488.087c.123.019.645.065.785.069 1.059.029 2.237-.067 3.208-.523.426-.2.817-.448 1.113-.785.401-.468.597-1.079.54-1.692-.06-.696-.551-1.521-.943-2.024-1.037-1.328-2.813-2.42-4.376-3.06C6.02 9.947 4.443 9.57 2.75 9.508c-.437-.016-1.389.006-1.87.139-.069.019-.138.042-.201.057-.054.013-.105.034-.152.062-.009.007-.017.014-.024.023l.058.029c.05.021.265.035.377.055.1.019.2.071.244.144.041.073.043.123-.003.18-.109.132-.52.11-.7.082-.182-.03-.422-.088-.465-.252-.05-.192.041-.38.14-.552.199-.348.483-.53.9-.643.62-.165 1.256-.264 1.897-.296 1.265-.05 2.46.172 3.687.543.783.243 1.548.539 2.29.887.574.283 1.13.596 1.67.937.134.089.922.665 1.044.766.255.208.589.507.83.746.468.462 1.05 1.17 1.333 1.732.068.134.12.267.208.423.071.15.131.306.18.465.022.092.054.226.058.23.007.05.068.325.061.43zm15.896-.72c-.593.135-2.15.211-2.15.211l-.196.613s.779-.067 1.345-.007c0 0 .183-.022.204.207.004.147-.002.295-.018.442 0 0-.011.139-.208.174-.214.036-1.677.091-1.677.091l-.237.8s-.089.184.109.132c.183-.05 1.717-.337 1.916-.295.214.053.451.337.383.596-.082.322-1.615 1.294-2.546 1.226 0 0-.49.032-.903-.627-.386-.628.146-1.816.146-1.816s-.244-.555-.067-.743c0 0 .105-.095.412-.116l.376-.776s-.428.029-.682-.284c-.237-.297-.257-.434-.075-.515.194-.096 1.974-.42 3.199-.379 0 0 .425-.041.794.694 0 0 .179.298-.125.37v.001zm-4.607 2.973c-.158.368-.571.76-1.086.516-.516-.244-1.32-1.896-1.32-1.896s-.306-.615-.365-.6c0 0-.067-.12-.108.553-.04.673.009 1.977-.26 2.183-.252.206-.561.123-.721-.117-.145-.238-.206-.804-.126-1.792.093-.993.324-2.048.62-2.377.296-.33.531-.09.624-.004 0 0 .396.357 1.046 1.403l.115.195s.592.989.656.987c0 0 .048.045.09.012.063-.017.038-.335.038-.335s-.122-1.078-.663-2.903c-.047-.142-.056-.293-.026-.44.055-.216.272-.115.272-.115s.836.42 1.242 1.776c.406 1.358.133 2.584-.026 2.954H25.6zm9.006-.813c-.38.662-1.457 2.049-2.886 1.721-.471 1.14-.867 2.294-1.095 4.02 0 0-.05.334-.33.218-.276-.097-.733-.556-.826-1.192-.1-.834.274-2.245 1.036-3.863-.222-.36-.374-.874-.244-1.607 0 0 .191-1.36 1.562-2.587 0 0 .165-.141.26-.098.105.045.056.487-.027.704-.083.217-.696 1.267-.696 1.267s-.38.711-.274 1.272c.72-1.101 2.354-3.324 3.367-2.622.34.242.497.77.498 1.338 0 .5-.122 1.031-.344 1.43zm-.296-1.746s-.057-.438-.486.045c-.37.406-1.036 1.17-1.573 2.205.563-.062 1.107-.367 1.27-.522.268-.237.889-.877.789-1.728zm8.168-.1H39.86c-.051-.887-.161-1.769-.328-2.642-.017-.091-.098-.158-.192-.158h-.605c-.053 0-.103.024-.136.064-.035.042-.048.096-.038.147.17.855.282 1.72.334 2.59h-2.52c-.058 0-.112.02-.151.06-.04.04-.063.094-.063.151v.541c0 .057.022.111.062.15.04.04.094.063.15.063h2.557c0 .134.003.254.003.367.004.72-.033 1.439-.11 2.155-.005.055.014.11.05.151.038.042.09.066.146.068h.56c.11 0 .2-.083.212-.19.076-.725.112-1.454.109-2.182 0-.112 0-.232-.003-.366h2.583c.056 0 .11-.023.15-.063.04-.04.063-.093.063-.15v-.542c0-.057-.023-.11-.063-.15-.04-.04-.094-.062-.15-.062v-.003z" transform="translate(16 16) translate(0 .104)"/>
                            <path fill="url(#uuiyms2rza)" d="M39.177 11.216C36.66 5.051 30.927.776 24.282.108c-6.647-.669-13.12 2.378-16.824 7.917-.037.055-.046.123-.024.186.021.062.07.111.132.132l.47.158c.027.009.056.014.084.014.087 0 .169-.043.217-.115C11.515 3.733 16.808.937 22.47.94c6.865 0 13.063 4.095 15.738 10.394.039.09.128.15.227.15h.56c.065 0 .126-.032.163-.086.036-.054.043-.122.02-.182z" transform="translate(16 16) translate(0 .104)"/>
                        </g>
                        <path fill="#FFF" d="M72.732 13.125c.874 0 1.607.322 2.071.997h.022v-.836h1.122v5.936h-1.123v-.92h-.021c-.42.707-1.176 1.072-2.028 1.072-1.747 0-3.171-1.308-3.171-3.023 0-1.896 1.37-3.225 3.128-3.225zm-17.836 0c1.65 0 3.203 1.286 3.182 3.172-.022 1.617-1.412 3.134-3.381 3.074-1.67-.05-3.089-1.476-3.07-3.135.022-1.791 1.448-3.11 3.269-3.11zm9.04 0c.992 0 1.802.686 1.834 1.736h-1.123c-.053-.428-.3-.717-.765-.717-.432 0-.7.289-.7.632 0 .503.517.653 1.11.835.841.257 1.618.761 1.618 1.865 0 1.146-.842 1.896-2.006 1.896-1.08 0-2.115-.728-2.115-2.1h1.123c.053.719.42 1.082 1.013 1.082.518 0 .863-.331.863-.814 0-.407-.312-.674-1.014-.9-1.467-.46-1.715-1.093-1.715-1.768 0-1.05.895-1.747 1.877-1.747zm-18.648-1.832c.62 0 1.123.499 1.123 1.115v1.51h.021c.356-.525.928-.793 1.672-.793 1.424 0 2.492.9 2.492 2.529v3.568h-1.122v-3.224c0-1.276-.496-1.854-1.488-1.854-.982 0-1.575.707-1.575 1.864v3.214h-1.123v-7.929zm15.185 0v1.993h.982v1.018h-.982v4.918c-.62 0-1.122-.498-1.122-1.114v-3.804h-.463v-1.018h.463v-1.993h1.123-.001zm7.794 0v1.993h.98v1.018h-.981v4.918c-.62 0-1.122-.498-1.122-1.114v-3.804h-.463v-1.018h.463v-1.993h1.123zm11.714 1.832v1.147c-.97.032-1.467.621-1.467 1.618v2.218c0 .616-.502 1.115-1.122 1.115v-5.937h1.046v.536h.022c.27-.396.733-.653 1.521-.696zm-25.14 1.018c-1.285 0-2.373 1.24-2.027 2.622.236.937 1.096 1.615 2.068 1.589 1.147-.032 2.074-.942 2.074-2.121 0-1.158-.938-2.09-2.114-2.09zm17.924 0c-1.185 0-2.141 1.063-2.03 2.319.09 1.034.941 1.871 1.987 1.892 1.185.024 2.124-.95 2.124-2.089 0-1.157-.841-2.122-2.081-2.122z" transform="translate(16 16)"/>
                    </g>
                </g>
            </g>
        </g>
    </g>
</svg>
