<svg xmlns="http://www.w3.org/2000/svg" xmlns:xlink="http://www.w3.org/1999/xlink" width="32" height="32" viewBox="0 0 32 32">
    <defs>
        <path id="tv8mltu1na" d="M7.922 0c-.588 0-1.178.136-1.709.392l-3.972 1.87C.726 3.008-.147 4.586.02 6.21c.366 3.484 1.843 8.668 6.805 13.63 4.961 4.964 10.146 6.441 13.62 6.806.143.015.277.022.41.022 1.506 0 2.856-.84 3.52-2.192l1.896-4.021c.874-1.808.257-3.966-1.447-5.039l-3.832-2.467c-.66-.412-1.382-.62-2.12-.62-1.048 0-2.035.407-2.778 1.15l-.512.511c-.482-.223-1.074-.596-1.692-1.215-.617-.616-.99-1.209-1.215-1.691l.51-.51c1.304-1.303 1.531-3.304.554-4.865L11.23 1.81C10.531.69 9.286 0 7.922 0m0 3.232c.233 0 .46.117.592.329L11 7.422c.172.276.132.633-.099.864L9.34 9.848c-.153.15-.226.365-.199.579.1.773.535 2.703 2.464 4.634 1.93 1.93 3.861 2.365 4.634 2.465.028.004.06.005.088.005.184 0 .362-.072.491-.206l1.562-1.56c.135-.135.313-.204.493-.204.128 0 .256.034.37.106l3.861 2.487c.305.19.414.58.253.9l-1.88 3.992c-.117.24-.359.388-.622.388-.024 0-.048-.001-.071-.004-1.989-.208-6.873-1.073-11.673-5.876-4.8-4.801-5.666-9.687-5.875-11.675-.03-.288.123-.565.383-.691L7.61 3.306c.1-.05.206-.074.311-.074"/>
    </defs>
    <g fill="none" fill-rule="evenodd">
        <g>
            <g>
                <g>
                    <g>
                        <g>
                            <g transform="translate(-873 -729) translate(208 709) translate(30.667 20) translate(634.333) translate(2.667 2.667)">
                                <mask id="9xo3z61w0b" fill="#fff">
                                    <use xlink:href="#tv8mltu1na"/>
                                </mask>
                                <use fill="#E00" xlink:href="#tv8mltu1na"/>
                                <g fill="#2F3042" mask="url(#9xo3z61w0b)">
                                    <path d="M0 0H32V32H0z" transform="translate(-2.667 -2.667)"/>
                                </g>
                            </g>
                        </g>
                    </g>
                </g>
            </g>
        </g>
    </g>
</svg>
