<svg xmlns="http://www.w3.org/2000/svg" xmlns:xlink="http://www.w3.org/1999/xlink" width="32" height="32" viewBox="0 0 32 32">
    <defs>
        <path id="whxc35p4qa" d="M21.484 0H5.183C2.325 0 0 2.284 0 5.09V15c0 2.807 2.325 5.093 5.183 5.093h7.264l3.034 2.978c.617.607 1.443.929 2.282.929.417 0 .835-.08 1.234-.242 1.207-.49 1.993-1.646 1.993-2.927v-.738h.494c2.858 0 5.183-2.286 5.183-5.093V5.09c0-2.806-2.325-5.09-5.183-5.09m0 3.169c1.08 0 1.955.861 1.955 1.922V15c0 1.06-.875 1.921-1.955 1.921h-3.721v3.91l-3.98-3.91h-8.6c-1.08 0-1.956-.86-1.956-1.922V5.09c0-1.06.876-1.921 1.956-1.921h16.3"/>
    </defs>
    <g fill="none" fill-rule="evenodd">
        <g>
            <g>
                <g>
                    <g>
                        <g>
                            <g transform="translate(-542 -729) translate(208 709) translate(30.667 20) translate(303.333) translate(2.667 4)">
                                <mask id="ljq53q8xmb" fill="#fff">
                                    <use xlink:href="#whxc35p4qa"/>
                                </mask>
                                <use fill="#EB0000" xlink:href="#whxc35p4qa"/>
                                <g fill="#2F3042" mask="url(#ljq53q8xmb)">
                                    <path d="M0 0H32V32H0z" transform="translate(-2.667 -4)"/>
                                </g>
                            </g>
                        </g>
                    </g>
                </g>
            </g>
        </g>
    </g>
</svg>
