<svg xmlns="http://www.w3.org/2000/svg" xmlns:xlink="http://www.w3.org/1999/xlink" width="24" height="24" viewBox="0 0 24 24">
    <defs>
        <path id="qtu7w8sdpa" d="M5.942 0C5.5 0 5.058.102 4.66.294L1.68 1.697C.545 2.256-.11 3.438.016 4.657c.275 2.613 1.383 6.5 5.105 10.222 3.72 3.723 7.609 4.831 10.215 5.105.107.01.208.016.307.016 1.13 0 2.142-.63 2.64-1.643l1.422-3.017c.655-1.355.193-2.974-1.085-3.778l-2.874-1.85c-.495-.31-1.037-.467-1.59-.467-.786 0-1.526.307-2.084.863l-.383.384c-.362-.168-.806-.448-1.27-.911-.463-.463-.742-.907-.911-1.269l.383-.383c.977-.976 1.148-2.477.415-3.648L8.423 1.358C7.898.518 6.965 0 5.942 0m0 2.424c.174 0 .345.088.443.247l1.866 2.896c.129.207.099.474-.074.647L7.005 7.386c-.115.113-.17.274-.15.434.076.58.402 2.027 1.849 3.476 1.447 1.447 2.896 1.774 3.475 1.848.022.003.045.004.066.004.138 0 .272-.054.369-.154l1.171-1.17c.101-.102.235-.153.37-.153.096 0 .192.025.277.08l2.896 1.864c.228.143.31.436.19.676l-1.41 2.994c-.088.18-.27.29-.466.29-.019 0-.037 0-.054-.002-1.492-.157-5.155-.805-8.754-4.407C3.233 9.565 2.584 5.9 2.427 4.409c-.023-.216.092-.423.287-.518L5.708 2.48c.075-.038.155-.056.234-.056"/>
    </defs>
    <g fill="none" fill-rule="evenodd">
        <g>
            <g>
                <g>
                    <g transform="translate(-232 -309) translate(208 140) translate(24 169) translate(2 2)">
                        <mask id="ob1wue1j1b" fill="#fff">
                            <use xlink:href="#qtu7w8sdpa"/>
                        </mask>
                        <use fill="#E00" xlink:href="#qtu7w8sdpa"/>
                        <g fill="#2F3042" mask="url(#ob1wue1j1b)">
                            <path d="M0 0H24V24H0z" transform="translate(-2 -2)"/>
                        </g>
                    </g>
                </g>
            </g>
        </g>
    </g>
</svg>
